<?xml version="1.0" standalone="no"?>
<!DOCTYPE svg PUBLIC "-//W3C//DTD SVG 20010904//EN"
 "http://www.w3.org/TR/2001/REC-SVG-20010904/DTD/svg10.dtd">
<svg version="1.0" xmlns="http://www.w3.org/2000/svg"
 width="4096.000000pt" height="4096.000000pt" viewBox="0 0 4096.000000 4096.000000"
 preserveAspectRatio="xMidYMid meet">

<g transform="translate(0.000000,4096.000000) scale(0.100000,-0.100000)"
fill="#000000" stroke="none">
<path d="M36645 27094 c-11 -3 -66 -14 -123 -24 -283 -54 -446 -150 -953 -562
-79 -64 -156 -127 -170 -140 -14 -13 -91 -80 -170 -149 -144 -126 -409 -372
-570 -530 -215 -211 -539 -599 -664 -794 -21 -33 -48 -76 -60 -95 -77 -120
-218 -391 -258 -495 -70 -183 -100 -402 -99 -725 1 -311 46 -606 147 -965 84
-300 238 -577 546 -985 214 -283 304 -375 487 -496 112 -74 158 -117 189 -178
40 -79 27 -126 -110 -401 -170 -340 -423 -682 -638 -863 -82 -68 -281 -212
-295 -212 -2 0 -30 -18 -62 -39 -64 -44 -207 -120 -297 -157 -80 -34 -303
-103 -390 -121 -97 -20 -751 -24 -845 -5 -74 15 -141 38 -186 64 -30 18 -31
20 -36 107 -5 74 -10 97 -37 147 -36 66 -68 105 -126 150 -47 36 -192 124
-204 124 -5 0 -37 14 -70 30 -187 93 -492 207 -701 261 -111 29 -293 32 -390
5 -133 -36 -250 -120 -288 -206 -26 -60 -20 -199 13 -295 66 -193 152 -333
283 -459 185 -180 330 -249 672 -320 596 -124 714 -140 1030 -140 667 1 840
12 1080 71 155 37 318 87 361 109 15 7 64 23 110 35 221 56 422 195 747 516
86 85 176 170 199 189 55 46 175 195 254 315 261 396 275 426 472 1039 136
421 201 646 271 940 13 58 34 146 46 195 12 50 39 162 60 250 43 184 97 380
180 650 77 251 104 348 135 480 14 61 34 146 45 190 23 90 43 185 70 325 22
114 43 200 121 513 32 131 59 255 59 275 0 42 35 264 81 512 17 91 42 226 54
300 56 324 104 527 134 577 14 23 113 130 220 239 106 109 213 223 236 255 77
104 82 188 16 283 -41 58 -66 79 -151 124 -109 58 -345 106 -425 86z m-518
-989 c33 -23 38 -100 14 -210 -11 -49 -30 -146 -41 -215 -12 -69 -34 -195 -50
-280 -30 -158 -49 -274 -95 -574 -23 -153 -65 -364 -99 -506 -28 -113 -56
-250 -86 -410 -46 -248 -96 -458 -168 -705 -12 -39 -46 -171 -77 -295 -30
-124 -64 -256 -75 -295 -191 -697 -197 -718 -247 -820 -51 -102 -107 -155
-165 -155 -57 0 -187 138 -323 340 -43 63 -87 126 -100 140 -39 43 -144 219
-211 352 -129 256 -229 556 -270 803 -26 156 -26 165 -16 355 7 116 19 231 31
285 59 274 273 721 511 1070 133 195 217 297 390 478 238 246 410 369 782 558
193 98 252 114 295 84z m-4107 -7285 c0 -5 -4 -10 -10 -10 -5 0 -10 5 -10 10
0 6 5 10 10 10 6 0 10 -4 10 -10z"/>
<path d="M8970 27015 c-197 -12 -277 -19 -605 -51 -82 -8 -244 -21 -360 -29
-115 -8 -266 -21 -335 -29 -69 -8 -188 -17 -265 -21 -151 -7 -643 -49 -765
-66 -41 -5 -131 -16 -200 -25 -69 -8 -161 -21 -205 -29 -44 -8 -165 -29 -270
-46 -246 -40 -371 -67 -610 -131 -143 -39 -435 -128 -457 -139 -9 -5 -115 -34
-235 -64 -120 -31 -245 -65 -278 -77 -324 -116 -494 -224 -560 -355 -30 -57
-30 -60 -29 -218 0 -145 3 -169 28 -250 34 -113 67 -173 128 -235 145 -147
367 -181 563 -85 55 27 201 130 340 241 199 159 382 269 542 328 21 8 72 29
113 46 87 37 311 120 535 199 33 11 128 37 210 56 174 42 266 69 303 90 57 31
322 93 597 140 88 15 282 51 430 81 338 66 552 98 826 123 396 37 1038 64
1098 47 41 -12 98 -76 106 -119 5 -25 1 -46 -13 -74 -20 -39 -154 -227 -235
-329 -23 -29 -53 -69 -67 -89 -14 -19 -45 -62 -70 -94 -265 -341 -271 -349
-403 -541 -219 -318 -455 -680 -475 -726 -4 -11 -33 -58 -64 -105 -31 -48 -83
-133 -115 -190 -33 -57 -72 -124 -87 -148 -29 -46 -99 -179 -263 -501 -52
-102 -122 -223 -157 -270 -34 -47 -107 -150 -161 -230 -53 -80 -129 -185 -168
-235 -80 -102 -139 -220 -175 -350 l-25 -90 -4 -578 c-3 -374 -1 -620 7 -700
16 -186 28 -413 32 -612 l3 -180 -405 4 c-472 4 -576 -4 -683 -50 -138 -58
-241 -167 -304 -319 -108 -262 -82 -487 72 -629 87 -80 192 -111 375 -111 110
0 421 29 635 60 105 15 502 50 569 50 54 0 187 -31 211 -50 6 -4 28 -13 50
-20 71 -22 238 -111 549 -292 60 -34 114 -65 120 -67 6 -2 29 -12 51 -23 22
-11 78 -34 125 -51 82 -31 90 -32 250 -32 187 0 231 9 389 76 158 68 242 137
292 242 39 83 41 185 5 261 -61 129 -269 262 -503 322 -40 10 -73 22 -73 26 0
4 26 8 58 8 31 0 129 7 217 15 227 20 616 41 1440 75 232 9 445 23 875 56 113
8 282 19 375 25 94 5 305 21 470 34 165 13 368 29 450 35 83 6 218 17 300 25
83 8 346 19 585 25 239 5 606 15 815 21 276 8 452 8 645 0 146 -6 330 -13 410
-17 80 -3 402 -9 715 -14 438 -7 586 -12 640 -24 101 -21 441 -39 650 -34 150
3 187 7 220 23 64 30 124 76 146 112 44 71 18 176 -56 224 -86 57 -293 109
-555 140 -141 16 -589 17 -715 2 -425 -53 -637 -64 -1390 -73 -787 -9 -1494
-25 -2010 -46 -203 -8 -545 -19 -760 -24 -214 -5 -502 -14 -640 -19 -460 -19
-587 -22 -1070 -31 -264 -5 -664 -17 -890 -25 -225 -9 -549 -17 -720 -18 -352
-2 -937 12 -954 22 -12 8 -33 121 -61 331 -20 149 -47 337 -76 540 -26 177
-23 570 5 759 25 167 37 199 82 234 78 58 115 69 278 82 86 8 302 27 481 44
179 17 435 37 570 46 137 8 273 22 310 31 168 42 267 133 305 283 14 52 15 71
5 112 -34 139 -100 202 -255 241 -85 22 -107 23 -415 22 -194 -1 -350 -6 -387
-13 -86 -16 -478 -61 -535 -61 -39 0 -50 5 -71 30 -14 16 -33 50 -43 75 -16
44 -16 50 0 143 65 358 207 714 409 1022 68 103 456 585 678 841 63 74 128
157 144 184 37 64 150 204 300 370 123 137 168 190 315 372 95 118 249 263
360 339 113 77 291 139 495 174 71 13 393 2 610 -20 215 -21 996 -55 1072 -46
59 7 203 -4 398 -30 61 -8 189 -24 285 -35 210 -24 623 -105 775 -152 61 -19
157 -47 215 -62 250 -66 255 -68 590 -196 128 -49 248 -109 360 -183 147 -96
208 -163 281 -307 40 -79 116 -154 189 -188 46 -21 70 -25 150 -25 89 -1 100
1 171 35 201 96 318 322 280 542 -20 120 -125 310 -223 404 -91 88 -174 133
-515 279 -18 7 -79 23 -135 35 -92 19 -153 22 -553 29 -485 9 -563 15 -815 60
-91 16 -280 43 -420 60 -140 16 -307 37 -370 45 -63 8 -176 19 -250 25 -74 6
-205 17 -290 25 -85 8 -217 19 -292 25 -76 6 -231 26 -345 45 -441 75 -736
107 -1220 135 -106 6 -195 16 -215 24 -56 23 -456 36 -1048 35 -305 -1 -647
-7 -760 -14z"/>
<path d="M19395 26186 c-121 -34 -225 -85 -410 -199 -202 -125 -623 -404 -695
-461 -116 -91 -314 -256 -370 -310 -30 -28 -104 -97 -165 -152 -60 -56 -150
-147 -200 -204 -49 -57 -137 -155 -194 -219 -58 -64 -183 -208 -280 -321 -97
-113 -212 -246 -256 -295 -137 -155 -218 -248 -275 -315 -30 -36 -122 -141
-205 -235 -191 -215 -293 -336 -380 -450 -64 -84 -157 -197 -181 -220 -5 -5
-35 -39 -64 -75 -236 -282 -630 -686 -845 -866 -231 -193 -435 -301 -765 -406
-257 -82 -385 -139 -500 -224 -152 -111 -154 -278 -6 -348 45 -22 69 -26 138
-26 157 0 324 60 516 186 235 155 380 231 405 211 51 -43 58 -98 26 -220 -42
-163 -10 -298 90 -374 68 -52 96 -56 406 -50 228 4 297 9 370 25 50 11 126 25
170 32 115 16 262 53 400 100 144 50 133 45 320 126 250 108 564 204 670 204
30 0 40 -7 74 -52 43 -59 130 -145 176 -175 37 -24 140 -66 220 -90 89 -27
352 -24 545 6 186 28 441 80 700 142 287 69 348 87 845 251 99 33 241 73 315
90 74 16 189 46 255 65 241 70 422 115 670 167 39 8 90 19 115 24 25 5 145 35
268 66 285 72 462 98 462 67 0 -17 -35 -53 -92 -94 -103 -72 -243 -150 -588
-322 -290 -145 -440 -225 -870 -467 -153 -87 -285 -154 -338 -172 -49 -17
-146 -68 -267 -140 -143 -84 -178 -107 -298 -195 -148 -107 -176 -127 -207
-149 -163 -112 -323 -257 -397 -356 -91 -123 -107 -270 -43 -400 27 -55 42
-72 79 -93 25 -15 72 -44 105 -65 100 -66 223 -90 343 -68 71 13 90 20 268 95
183 77 345 139 730 281 83 31 186 69 230 85 44 16 213 77 375 135 162 58 351
127 420 154 69 26 166 62 215 78 90 30 341 121 575 207 317 118 1079 355 1139
355 18 0 248 66 638 184 370 111 538 152 749 181 376 52 504 54 747 9 138 -25
165 -36 377 -164 204 -123 301 -157 480 -166 86 -5 122 -2 200 15 139 32 534
191 845 342 99 47 186 74 211 65 7 -3 33 -46 59 -95 53 -103 105 -153 215
-205 60 -28 73 -31 170 -30 75 1 125 7 175 21 202 60 217 30 52 -102 -99 -80
-127 -121 -127 -190 0 -59 32 -115 95 -166 78 -62 148 -75 227 -40 55 24 164
102 248 178 116 103 212 177 350 269 74 50 201 137 282 195 142 100 256 180
401 282 84 59 278 168 367 207 92 40 135 50 217 50 106 0 169 -16 211 -55 l36
-32 -12 -69 c-6 -38 -21 -114 -32 -169 -38 -175 -18 -301 66 -410 40 -52 229
-188 305 -217 146 -58 286 -71 407 -38 134 37 196 74 692 407 58 39 143 94
190 123 131 81 203 142 233 198 75 137 -23 250 -174 201 -72 -24 -190 -72
-195 -80 -3 -5 -12 -9 -19 -9 -21 0 -303 -141 -427 -214 -112 -65 -284 -125
-363 -126 -50 0 -104 19 -139 51 -27 23 -36 40 -40 77 -9 68 16 203 58 309 82
210 83 345 3 445 -34 43 -121 91 -197 108 -67 16 -216 18 -462 6 -123 -6 -188
-6 -188 1 0 24 66 106 137 170 111 100 330 274 418 332 107 71 507 405 745
621 52 48 149 131 215 184 479 390 526 432 1023 915 347 338 494 501 704 781
101 133 144 215 164 308 38 180 -10 301 -132 337 -72 21 -122 19 -260 -10
-275 -57 -312 -79 -793 -480 -53 -43 -123 -104 -156 -135 -76 -72 -215 -193
-280 -245 -105 -83 -206 -174 -385 -345 -102 -97 -221 -210 -265 -250 -381
-350 -805 -766 -936 -920 -56 -66 -80 -97 -244 -315 -202 -269 -327 -419 -584
-701 -339 -371 -493 -496 -771 -626 -99 -46 -114 -53 -345 -142 -224 -86 -383
-97 -445 -31 -47 50 -18 123 136 333 107 145 148 223 198 374 48 145 53 178
31 233 -32 86 -98 115 -345 150 -465 66 -642 54 -1017 -71 -186 -62 -326 -139
-533 -293 -170 -127 -295 -248 -553 -537 -69 -78 -145 -158 -167 -177 -47 -40
-105 -57 -284 -82 -59 -8 -112 -17 -116 -20 -4 -3 -66 -10 -136 -16 -120 -9
-433 -58 -514 -79 -19 -5 -75 -16 -125 -24 -132 -23 -240 -48 -420 -99 -153
-43 -219 -62 -420 -122 -167 -50 -260 -76 -410 -116 -82 -22 -193 -51 -245
-65 -52 -14 -135 -36 -185 -49 -107 -28 -226 -61 -269 -75 -76 -24 -197 -59
-266 -78 -253 -69 -345 -96 -575 -167 -77 -24 -180 -55 -230 -69 -49 -15 -142
-42 -205 -61 -63 -19 -149 -44 -190 -54 -86 -23 -410 -129 -580 -191 -125 -45
-335 -114 -470 -153 -192 -57 -412 -95 -471 -82 -30 7 -42 41 -26 72 16 29 87
101 150 150 32 25 69 62 82 83 29 46 89 88 280 197 238 135 406 234 474 277
36 23 95 58 131 78 117 63 785 440 795 448 6 5 64 39 130 78 66 38 172 101
235 139 159 97 253 144 477 239 244 103 378 181 478 279 109 107 149 203 125
292 -22 78 -121 132 -254 140 -139 9 -414 -33 -721 -110 -120 -30 -254 -57
-415 -83 -239 -38 -523 -94 -755 -149 -55 -13 -181 -40 -280 -60 -99 -20 -225
-47 -280 -59 -55 -13 -154 -36 -220 -51 -66 -15 -151 -35 -190 -45 -38 -10
-123 -30 -187 -44 -314 -69 -426 -96 -713 -171 -334 -88 -411 -105 -605 -139
-303 -52 -442 -60 -497 -27 -26 16 -33 28 -39 66 -3 26 -4 73 -1 106 10 116
110 233 293 344 350 212 539 366 589 479 48 109 35 193 -47 313 -36 53 -138
127 -198 143 -60 17 -185 15 -246 -3 -118 -35 -248 -140 -391 -316 -130 -158
-262 -306 -350 -393 -74 -72 -248 -195 -378 -268 -33 -18 -85 -48 -115 -66
-95 -57 -707 -340 -955 -441 -232 -95 -389 -138 -551 -150 -68 -5 -71 -5 -77
18 -11 41 -7 152 7 207 46 171 189 344 561 677 113 101 518 437 558 463 74 48
353 256 541 402 75 58 168 129 207 159 73 55 344 280 454 376 33 29 98 85 145
126 47 41 179 166 295 279 196 192 364 341 530 470 148 115 449 385 565 507
81 84 212 230 350 388 58 66 118 134 133 151 138 154 212 290 235 430 35 201
-28 363 -168 435 -56 29 -206 37 -285 15z m-173 -633 c24 -22 23 -32 -11 -103
-68 -140 -204 -287 -432 -466 -238 -187 -266 -209 -390 -309 -123 -99 -371
-307 -398 -333 -38 -37 -192 -161 -326 -262 -231 -175 -421 -339 -645 -557
-113 -110 -279 -266 -370 -347 -91 -82 -206 -187 -255 -235 -197 -188 -322
-300 -337 -301 -19 0 -3 28 59 109 62 81 260 320 273 331 7 6 200 224 269 304
24 28 67 76 95 106 56 59 175 193 271 305 98 114 299 317 468 474 242 223 408
372 462 416 28 21 102 85 165 141 242 213 589 485 765 600 121 78 250 139 304
143 8 1 23 -6 33 -16z m13586 -665 c8 -70 -216 -312 -873 -943 -271 -260 -406
-381 -615 -550 -74 -60 -178 -147 -229 -193 -191 -168 -651 -532 -673 -532
-16 0 -7 47 20 105 16 33 53 89 83 124 30 36 81 98 115 138 33 41 112 122 175
180 63 59 191 179 284 268 94 89 217 204 275 256 58 52 180 162 270 245 91 83
208 188 260 234 52 45 127 112 165 149 123 117 444 394 513 443 85 60 192 111
217 104 6 -1 11 -14 13 -28z m-5438 -2923 c20 -18 22 -28 18 -95 -6 -121 -34
-169 -186 -318 -342 -336 -614 -496 -885 -518 -136 -12 -237 39 -237 120 0 42
26 129 58 191 29 59 135 172 206 220 28 19 101 71 161 115 183 135 385 225
680 303 11 3 52 5 92 4 55 -2 76 -7 93 -22z"/>
<path d="M18990 23784 c-106 -28 -261 -102 -355 -169 -172 -122 -288 -314
-270 -446 17 -120 115 -243 230 -287 45 -18 78 -22 160 -22 168 0 297 50 532
207 140 93 244 191 275 259 18 41 22 68 23 159 0 126 -11 156 -87 236 -62 66
-141 89 -297 88 -90 0 -137 -6 -211 -25z m-280 -734 c0 -5 -7 -10 -15 -10 -8
0 -15 5 -15 10 0 6 7 10 15 10 8 0 15 -4 15 -10z"/>
<path d="M18605 15484 c-97 -22 -261 -42 -431 -55 -88 -6 -161 -13 -163 -15
-3 -3 -7 -31 -9 -63 -3 -40 0 -61 8 -66 7 -5 65 -11 128 -15 95 -6 118 -11
129 -26 10 -14 13 -102 13 -431 0 -227 -2 -413 -5 -413 -2 0 -34 22 -70 49
-99 74 -142 86 -315 86 -129 -1 -154 -3 -225 -27 -281 -93 -465 -302 -541
-612 -35 -145 -34 -342 1 -482 36 -143 98 -263 184 -355 122 -132 215 -179
434 -220 l108 -20 74 20 c107 30 196 75 292 148 46 35 83 58 83 52 0 -51 25
-207 34 -217 11 -11 30 -10 107 3 52 9 164 20 249 24 189 9 202 14 198 79 l-3
47 -47 7 c-154 25 -141 20 -151 58 -16 59 -21 1576 -7 2028 11 341 10 406 -1
417 -11 10 -25 10 -74 -1z m-601 -1119 c104 -27 178 -95 233 -213 36 -77 47
-304 27 -567 -17 -232 -27 -286 -59 -341 -42 -71 -122 -151 -181 -180 -48 -23
-63 -26 -117 -21 -76 7 -147 37 -191 82 -120 119 -174 450 -130 795 45 355
186 505 418 445z"/>
<path d="M29450 15480 c-71 -18 -259 -41 -470 -57 l-95 -8 -3 -66 -3 -66 38
-7 c21 -3 66 -6 101 -6 34 0 78 -7 97 -14 l35 -15 0 -420 c0 -232 -2 -421 -5
-421 -3 0 -32 21 -64 48 -93 74 -138 87 -316 87 -166 0 -219 -12 -357 -81
-190 -95 -341 -297 -405 -541 -22 -85 -25 -119 -25 -258 0 -144 2 -170 27
-259 79 -290 250 -470 506 -535 106 -27 224 -36 289 -22 105 22 250 101 332
179 l37 35 5 -24 c3 -13 8 -51 11 -84 10 -97 16 -123 31 -129 8 -3 51 1 97 10
45 8 157 18 248 23 91 5 176 14 188 20 15 8 21 21 21 44 0 53 -16 65 -110 77
-47 6 -89 15 -94 20 -20 20 -28 484 -20 1270 11 1241 12 1214 -6 1217 -8 1
-49 -7 -90 -17z m-552 -1121 c75 -25 151 -91 200 -172 31 -52 34 -63 44 -194
16 -218 -8 -634 -41 -709 -29 -65 -111 -163 -172 -204 -50 -33 -56 -35 -138
-34 -107 0 -153 22 -214 99 -87 111 -129 290 -128 547 0 204 26 381 68 473 86
186 213 251 381 194z"/>
<path d="M9475 15403 c-8 -65 -33 -131 -58 -151 -14 -12 -24 -9 -75 22 -111
67 -248 113 -437 147 -419 73 -893 -68 -1201 -358 -176 -167 -287 -372 -345
-640 -32 -153 -37 -429 -10 -593 20 -125 71 -291 116 -382 172 -345 527 -592
938 -654 152 -23 424 -24 532 -2 102 21 266 92 347 151 165 118 323 320 408
519 17 39 30 78 30 89 0 23 -98 99 -128 99 -17 0 -36 -30 -102 -158 -95 -184
-158 -274 -249 -349 -76 -62 -196 -124 -291 -148 -87 -22 -266 -30 -367 -17
-210 29 -378 136 -487 311 -30 48 -89 198 -114 291 -73 266 -73 771 0 1040 77
284 183 448 356 549 88 51 163 71 299 78 219 11 437 -39 577 -132 78 -51 165
-149 209 -233 36 -69 87 -216 87 -253 0 -36 30 -51 88 -47 29 3 57 10 61 17 9
15 23 823 15 845 -5 13 -24 16 -99 16 l-94 0 -6 -57z"/>
<path d="M25070 15380 c-52 -4 -153 -8 -223 -9 -120 -1 -167 -10 -167 -30 0
-5 -23 -58 -50 -117 -63 -135 -58 -125 -120 -269 -29 -66 -62 -142 -75 -170
-12 -27 -64 -144 -115 -260 -51 -115 -100 -228 -110 -250 -10 -22 -53 -119
-95 -215 -42 -96 -85 -193 -95 -215 -15 -34 -68 -155 -145 -333 -15 -33 -21
-40 -31 -30 -6 7 -90 168 -186 358 -97 190 -199 390 -228 445 -189 363 -287
551 -422 815 -56 107 -112 215 -125 238 l-25 44 -361 -7 c-199 -3 -377 -8
-394 -11 l-33 -5 0 -64 c0 -62 1 -65 28 -71 159 -36 253 -74 330 -134 97 -74
90 9 85 -1033 -3 -543 -8 -925 -14 -943 -20 -65 -121 -109 -274 -120 -49 -4
-98 -11 -107 -15 -22 -12 -34 -73 -20 -103 l10 -23 448 1 c437 1 447 2 455 21
10 27 11 87 0 103 -5 9 -36 15 -89 17 -90 4 -159 28 -204 72 l-28 27 0 790 c0
669 2 788 14 776 7 -8 98 -181 201 -385 103 -203 223 -437 265 -520 42 -82
159 -310 258 -506 100 -196 192 -376 204 -400 22 -42 25 -44 75 -47 63 -4 57
-11 151 198 38 85 142 317 232 515 89 198 175 389 190 425 15 36 53 121 85
190 81 179 91 201 108 240 9 19 38 85 65 145 27 61 53 120 56 133 4 12 12 22
17 22 6 0 8 -297 7 -794 -3 -778 -3 -794 -23 -816 -32 -36 -94 -58 -188 -65
-115 -10 -129 -24 -111 -112 l6 -29 546 0 c301 1 553 5 560 9 12 8 17 83 6
111 -5 13 -24 16 -103 16 -116 0 -167 21 -218 88 l-33 44 2 1021 3 1021 60 23
c33 13 102 30 155 39 52 9 105 18 118 20 20 4 22 10 22 74 l0 70 -127 -2 c-71
-1 -171 -5 -223 -8z"/>
<path d="M12865 14573 c-70 -10 -198 -44 -237 -64 -120 -61 -211 -155 -255
-263 -26 -65 -28 -81 -28 -201 0 -121 2 -134 28 -190 34 -74 82 -125 167 -179
67 -42 100 -58 305 -147 278 -120 365 -199 365 -335 0 -61 -18 -104 -64 -152
-49 -51 -101 -69 -231 -78 -78 -6 -101 -4 -156 15 -149 49 -258 197 -299 401
-7 36 -20 71 -28 78 -9 6 -40 12 -69 12 -48 0 -53 -2 -59 -26 -4 -14 -3 -149
1 -300 l7 -275 25 -10 c38 -14 100 -11 117 7 9 8 16 26 16 40 0 31 8 30 81 -6
33 -17 101 -45 152 -62 87 -30 100 -32 232 -31 154 0 239 18 365 75 159 71
257 238 268 453 3 79 1 98 -22 158 -67 177 -241 310 -566 433 -113 43 -218 97
-243 127 -95 113 -63 284 66 355 54 29 153 30 248 2 52 -16 78 -31 111 -64 72
-72 101 -146 133 -338 l6 -38 54 0 c87 0 84 -10 82 298 l-2 267 -63 3 -62 3
-6 -31 c-4 -16 -12 -30 -18 -30 -7 0 -37 14 -68 30 -101 55 -237 79 -353 63z"/>
<path d="M32730 14574 c-175 -31 -228 -50 -337 -121 -124 -80 -203 -241 -203
-414 0 -202 105 -335 344 -436 304 -128 391 -175 463 -250 67 -69 84 -130 60
-214 -36 -121 -129 -179 -288 -179 -198 0 -308 71 -398 255 -22 44 -46 114
-55 155 -18 87 -31 100 -98 100 -47 0 -48 0 -49 -32 -2 -137 3 -562 8 -574 4
-10 22 -14 62 -14 61 0 81 11 81 46 0 13 4 26 10 29 5 3 47 -12 92 -33 149
-70 216 -86 363 -86 111 0 145 4 230 27 178 49 233 83 312 194 68 96 86 161
87 318 1 123 0 133 -27 187 -74 151 -255 284 -521 383 -260 97 -326 155 -326
288 0 137 91 226 228 227 141 0 248 -53 307 -154 29 -49 65 -181 65 -237 0
-51 21 -69 78 -69 81 0 77 -15 77 292 l0 273 -63 3 c-62 3 -64 3 -75 -28 -13
-35 -28 -38 -68 -9 -71 50 -265 90 -359 73z"/>
<path d="M26512 14545 c-234 -41 -473 -212 -581 -416 -23 -43 -54 -115 -68
-161 -25 -78 -27 -95 -27 -273 0 -164 4 -203 23 -285 52 -212 124 -341 249
-445 114 -95 258 -147 452 -166 283 -26 468 19 639 156 141 112 233 265 293
485 20 74 23 109 23 265 0 162 -2 187 -24 255 -55 172 -193 348 -356 455 -65
42 -187 96 -260 115 -104 27 -259 33 -363 15z m313 -175 c59 -34 91 -67 139
-140 52 -81 80 -147 109 -264 19 -80 22 -116 21 -301 0 -181 -3 -223 -22 -305
-53 -223 -155 -352 -302 -382 -302 -61 -501 209 -503 682 -1 358 96 626 255
703 77 37 75 37 173 33 73 -2 98 -7 130 -26z"/>
<path d="M10802 14539 c-148 -19 -274 -80 -372 -179 -95 -95 -125 -174 -108
-284 19 -124 114 -211 229 -211 71 1 164 45 197 94 57 87 54 206 -8 298 -37
53 -38 58 -23 75 9 10 40 30 70 44 48 24 62 26 141 22 144 -7 219 -59 262
-182 17 -46 20 -82 20 -220 0 -91 -4 -167 -8 -170 -5 -3 -94 -10 -198 -16
-433 -23 -659 -133 -745 -358 -18 -49 -20 -71 -16 -162 7 -152 53 -258 151
-348 72 -67 218 -122 321 -122 62 0 180 32 260 70 63 30 173 109 214 154 14
14 28 26 32 26 4 0 22 -30 40 -66 51 -102 134 -160 259 -178 60 -9 181 23 250
65 91 56 170 188 170 284 0 26 -7 36 -41 58 -22 15 -47 27 -55 27 -19 0 -40
-36 -59 -105 -18 -67 -29 -84 -66 -109 -35 -22 -72 -8 -96 36 -17 30 -18 70
-18 513 l0 480 -31 76 c-39 97 -80 156 -152 219 -116 102 -230 154 -377 170
-102 11 -152 11 -243 -1z m398 -1062 c0 -171 -3 -206 -16 -227 -35 -52 -111
-123 -159 -147 -45 -23 -58 -25 -135 -21 -123 7 -167 35 -212 133 -18 40 -22
67 -22 140 0 149 54 236 164 263 87 22 295 57 353 61 l27 1 0 -203z"/>
<path d="M14590 14540 c-88 -11 -212 -57 -282 -104 -67 -44 -147 -129 -172
-180 -67 -141 -17 -310 109 -370 66 -31 94 -32 169 -6 117 40 158 99 159 225
0 73 -21 132 -64 178 -26 28 -25 32 16 63 50 37 100 53 175 54 129 0 212 -47
263 -150 l32 -65 0 -177 c0 -97 -2 -178 -5 -181 -3 -3 -93 -10 -200 -16 -330
-20 -516 -79 -645 -206 -48 -48 -68 -76 -90 -132 -26 -67 -27 -78 -23 -185 4
-95 10 -124 34 -183 39 -94 126 -188 211 -226 86 -40 195 -63 262 -56 141 14
310 96 414 201 26 25 52 46 60 46 7 0 21 -22 31 -49 35 -99 118 -164 243 -192
100 -23 280 42 349 126 44 54 83 142 90 202 6 48 6 48 -36 76 -66 43 -80 36
-106 -54 -26 -87 -50 -126 -85 -138 -43 -15 -66 0 -91 57 -19 42 -20 61 -17
281 2 130 4 335 4 456 0 218 0 221 -29 300 -16 44 -39 96 -51 115 -82 129
-252 247 -404 279 -73 16 -242 22 -321 11z m400 -1054 c0 -107 -4 -205 -9
-219 -16 -40 -112 -137 -162 -163 -37 -18 -64 -24 -117 -24 -161 0 -244 75
-259 235 -9 101 12 186 58 239 22 25 54 49 72 55 59 18 335 68 390 70 l27 1 0
-194z"/>
<path d="M30658 14540 c-254 -30 -475 -216 -486 -410 -3 -58 0 -72 28 -125 43
-79 52 -89 118 -120 68 -32 117 -30 203 8 93 41 125 105 117 233 -5 75 -39
152 -75 173 -23 12 -7 31 55 67 61 36 183 45 260 20 73 -24 136 -84 163 -154
20 -51 22 -73 21 -226 0 -93 -5 -173 -9 -177 -5 -5 -94 -13 -198 -19 -292 -15
-478 -69 -607 -174 -106 -86 -148 -177 -148 -315 1 -157 43 -273 133 -363 56
-56 93 -76 202 -112 91 -30 162 -33 243 -10 146 40 256 102 349 195 29 29 54
51 56 48 1 -2 16 -32 32 -67 49 -105 117 -158 236 -183 98 -21 254 29 332 107
51 50 82 106 102 182 18 72 13 89 -39 121 -61 38 -70 32 -101 -83 -17 -62 -68
-126 -99 -126 -9 0 -30 13 -48 29 -28 24 -33 37 -40 97 -4 38 -3 233 3 434 13
425 7 487 -56 615 -61 124 -218 256 -361 305 -100 35 -246 46 -386 30z m393
-1070 c-2 -169 -5 -209 -18 -230 -35 -53 -94 -106 -148 -134 -52 -26 -64 -28
-138 -24 -127 7 -192 54 -221 159 -29 102 -14 232 36 305 13 18 41 43 63 54
48 24 347 80 409 76 18 -1 19 -10 17 -206z"/>
<path d="M19980 14519 c-286 -21 -542 -183 -657 -414 -72 -143 -96 -259 -96
-455 0 -160 21 -288 62 -389 73 -180 212 -325 386 -403 123 -55 170 -63 350
-62 149 0 165 2 240 28 151 54 273 136 366 248 54 65 110 173 102 195 -8 21
-132 105 -150 101 -10 -2 -34 -36 -55 -77 -64 -125 -139 -209 -238 -268 -105
-62 -258 -73 -357 -27 -111 53 -203 233 -237 466 -22 147 -21 234 2 240 9 3
244 6 522 7 374 2 507 5 513 14 13 19 0 257 -18 322 -65 237 -238 402 -480
458 -89 20 -148 24 -255 16z m131 -173 c68 -32 117 -84 155 -162 36 -73 38
-79 42 -209 l5 -135 -312 0 c-263 0 -311 2 -311 14 0 47 25 183 47 256 59 196
129 264 268 257 40 -1 85 -10 106 -21z"/>
</g>
</svg>
