<?xml version="1.0" standalone="no"?>
<!DOCTYPE svg PUBLIC "-//W3C//DTD SVG 20010904//EN"
 "http://www.w3.org/TR/2001/REC-SVG-20010904/DTD/svg10.dtd">
<svg version="1.0" xmlns="http://www.w3.org/2000/svg"
 width="4096.000000pt" height="4096.000000pt" viewBox="0 0 4096.000000 4096.000000"
 preserveAspectRatio="xMidYMid meet">

<g transform="translate(0.000000,4096.000000) scale(0.100000,-0.100000)"
fill="#000000" stroke="none">
<path d="M0 20480 l0 -20480 20480 0 20480 0 0 20480 0 20480 -20480 0 -20480
0 0 -20480z m36800 6604 c47 -9 102 -18 123 -21 20 -3 40 -9 43 -14 3 -5 12
-9 20 -9 27 0 140 -60 183 -96 23 -20 53 -57 69 -82 22 -39 27 -59 27 -117 0
-68 -1 -73 -49 -140 -27 -38 -137 -157 -243 -264 -193 -195 -240 -254 -254
-321 -5 -19 -13 -55 -19 -80 -6 -25 -15 -69 -20 -97 -6 -29 -14 -77 -20 -105
-5 -29 -14 -73 -20 -98 -6 -25 -15 -74 -20 -110 -5 -36 -14 -90 -19 -120 -6
-30 -16 -80 -21 -110 -6 -30 -15 -77 -20 -105 -9 -47 -17 -93 -40 -240 -5 -33
-14 -87 -20 -120 -6 -33 -15 -96 -20 -140 -5 -44 -14 -98 -20 -120 -6 -22 -15
-58 -20 -80 -6 -22 -15 -58 -21 -80 -15 -57 -26 -103 -39 -160 -7 -27 -16 -67
-21 -87 -30 -124 -42 -180 -59 -273 -5 -27 -15 -70 -21 -95 -6 -25 -14 -67
-18 -95 -5 -27 -15 -72 -23 -100 -8 -27 -20 -75 -27 -105 -14 -63 -28 -122
-42 -166 -5 -17 -9 -37 -9 -46 0 -8 -9 -44 -20 -79 -27 -84 -55 -178 -81 -264
-11 -38 -24 -79 -29 -90 -5 -11 -16 -49 -25 -85 -19 -76 -39 -147 -65 -235
-27 -93 -35 -121 -68 -270 -12 -49 -31 -126 -42 -170 -12 -44 -24 -93 -26
-110 -3 -16 -9 -47 -14 -67 -6 -21 -14 -55 -20 -75 -5 -21 -17 -69 -26 -108
-9 -38 -22 -88 -29 -110 -6 -22 -17 -65 -24 -95 -7 -30 -16 -66 -20 -80 -9
-29 -23 -75 -41 -140 -7 -25 -16 -54 -20 -65 -4 -11 -13 -40 -20 -65 -7 -25
-16 -54 -20 -65 -5 -11 -14 -38 -20 -60 -6 -22 -15 -49 -20 -60 -11 -28 -26
-72 -40 -125 -7 -25 -20 -67 -30 -95 -9 -27 -27 -81 -40 -120 -12 -38 -26 -79
-30 -90 -5 -11 -10 -29 -13 -40 -22 -93 -126 -320 -188 -413 -16 -24 -29 -45
-29 -47 0 -11 -197 -307 -225 -339 -6 -6 -30 -36 -54 -66 -25 -30 -63 -72 -85
-93 -23 -21 -109 -104 -192 -185 -185 -181 -229 -221 -324 -298 -100 -81 -201
-149 -258 -175 -26 -12 -60 -27 -77 -35 -16 -7 -55 -20 -85 -28 -72 -19 -98
-28 -200 -66 -79 -29 -189 -62 -270 -81 -19 -4 -62 -14 -95 -22 -72 -17 -192
-33 -340 -46 -147 -12 -982 -7 -1065 7 -80 13 -159 28 -225 41 -129 26 -228
45 -315 61 -30 5 -75 15 -100 21 -25 5 -65 14 -90 19 -25 4 -63 14 -85 20 -22
7 -55 14 -73 17 -18 3 -35 9 -38 14 -3 5 -12 9 -19 9 -28 0 -184 83 -246 130
-165 125 -288 276 -358 440 -34 80 -38 91 -52 135 -6 22 -15 50 -20 63 -5 13
-9 58 -9 101 0 129 44 203 160 269 67 39 94 50 176 71 50 13 249 14 290 2 16
-5 54 -14 84 -21 72 -16 180 -49 202 -61 10 -5 24 -9 32 -9 13 0 47 -12 189
-69 65 -26 232 -100 342 -152 60 -28 134 -73 193 -116 71 -52 152 -169 152
-218 0 -13 5 -27 10 -30 6 -3 10 -37 10 -75 l0 -69 53 -24 c127 -60 142 -61
577 -61 396 -1 421 2 572 49 46 14 112 35 148 46 75 24 289 125 364 173 160
102 304 198 326 218 14 13 57 50 95 82 39 32 97 91 129 130 33 39 62 73 66 76
42 34 274 363 303 428 6 15 14 29 17 32 11 10 42 69 99 185 87 178 103 215
117 274 11 51 11 58 -11 106 -27 58 -84 118 -146 153 -59 33 -194 136 -258
196 -56 54 -162 181 -275 331 -37 50 -74 98 -82 108 -23 28 -210 309 -233 350
-12 21 -31 54 -43 75 -41 71 -74 137 -92 182 -10 25 -24 59 -31 75 -15 34 -46
127 -65 195 -7 25 -16 55 -21 68 -5 13 -9 33 -9 45 0 12 -7 42 -16 67 -15 43
-22 74 -45 200 -41 226 -54 369 -54 595 0 245 10 381 37 505 22 103 55 209 69
225 5 5 9 15 9 23 0 23 188 384 233 446 4 6 33 52 65 101 32 50 75 113 96 140
21 28 47 63 59 80 21 28 166 205 177 215 3 3 20 23 39 45 126 149 224 251 427
445 238 228 399 375 548 500 17 14 51 43 76 66 100 91 502 405 600 470 187
124 340 189 520 223 137 25 156 28 165 29 6 1 48 -5 95 -14z m-26420 -69 c250
-5 355 -13 455 -34 28 -6 129 -15 225 -21 317 -19 543 -38 703 -60 194 -26
225 -30 280 -40 320 -56 410 -69 572 -80 72 -5 177 -14 235 -20 58 -6 164 -15
235 -20 72 -6 168 -14 215 -20 97 -11 215 -25 345 -40 50 -5 126 -14 170 -20
44 -6 112 -15 150 -20 89 -12 186 -27 250 -40 188 -38 354 -50 855 -60 375 -8
434 -12 545 -38 97 -24 290 -108 464 -203 70 -38 163 -131 223 -221 51 -78 62
-98 101 -188 92 -212 -29 -531 -238 -624 -22 -10 -53 -24 -69 -32 -18 -9 -63
-14 -118 -14 -76 0 -97 4 -151 29 -85 39 -137 90 -197 195 -94 167 -145 218
-320 327 -117 72 -210 114 -470 212 -30 11 -59 23 -65 27 -5 3 -30 12 -55 20
-25 7 -70 20 -100 30 -30 10 -74 22 -97 29 -24 6 -62 16 -85 22 -24 7 -56 15
-73 20 -16 4 -73 21 -125 37 -52 16 -117 35 -145 41 -27 7 -66 16 -85 21 -19
5 -53 12 -75 15 -22 4 -60 11 -85 16 -201 43 -310 61 -485 79 -55 5 -129 15
-165 20 -144 23 -259 31 -570 40 -394 12 -758 28 -900 40 -131 11 -506 33
-580 34 -53 0 -138 -12 -230 -35 -25 -6 -60 -13 -78 -16 -18 -3 -35 -9 -38
-14 -3 -5 -12 -9 -19 -9 -8 0 -44 -13 -80 -30 -36 -16 -70 -30 -75 -30 -6 0
-10 -3 -10 -8 0 -4 -12 -13 -27 -20 -91 -40 -315 -248 -429 -397 -37 -49 -71
-92 -74 -95 -3 -3 -30 -34 -60 -70 -30 -36 -57 -67 -60 -70 -3 -3 -43 -48 -90
-100 -47 -52 -92 -102 -100 -110 -9 -8 -31 -35 -50 -60 -19 -25 -48 -61 -65
-81 -39 -47 -57 -71 -72 -97 -7 -12 -19 -32 -25 -44 -16 -27 -29 -43 -159
-193 -160 -184 -220 -257 -462 -560 -150 -189 -204 -264 -254 -355 -16 -30
-39 -71 -50 -90 -31 -54 -89 -170 -108 -215 -9 -22 -21 -48 -26 -57 -5 -10 -9
-22 -9 -28 0 -6 -8 -29 -19 -53 -15 -35 -34 -92 -91 -277 -8 -26 -25 -107 -35
-170 -3 -19 -8 -64 -11 -100 -5 -60 -3 -69 25 -113 17 -26 41 -51 53 -56 30
-11 159 0 463 39 186 24 675 43 768 30 215 -31 267 -48 325 -111 67 -71 99
-194 71 -280 -42 -134 -139 -224 -279 -262 -63 -16 -152 -27 -325 -37 -93 -5
-224 -14 -290 -20 -66 -6 -172 -15 -235 -20 -118 -10 -238 -22 -415 -40 -55
-5 -138 -13 -185 -16 -65 -5 -100 -14 -147 -36 -74 -35 -101 -60 -118 -111
-12 -34 -17 -68 -46 -280 -13 -96 -6 -536 10 -642 18 -124 32 -218 41 -290 5
-38 14 -99 20 -135 6 -36 14 -101 19 -145 5 -44 15 -109 21 -145 7 -36 15 -85
18 -110 l7 -45 160 -9 c251 -14 1114 -12 1500 2 193 8 530 17 750 22 428 10
918 24 1395 40 162 6 450 15 640 20 190 5 446 14 570 20 314 14 1043 30 1915
41 407 5 796 13 865 18 315 22 430 31 500 41 248 32 435 41 650 30 118 -6 238
-15 265 -20 28 -5 88 -14 135 -20 90 -13 105 -16 215 -50 85 -26 153 -56 179
-79 29 -26 56 -87 56 -128 0 -71 -54 -134 -156 -183 l-62 -30 -278 1 c-167 0
-336 6 -419 15 -77 8 -185 19 -240 24 -55 5 -372 15 -705 21 -333 6 -708 16
-835 21 -339 14 -455 14 -940 0 -242 -7 -593 -17 -780 -22 -187 -5 -383 -14
-435 -20 -95 -10 -230 -21 -495 -40 -77 -5 -187 -14 -245 -20 -58 -5 -186 -14
-285 -20 -99 -5 -236 -15 -305 -21 -206 -17 -330 -26 -847 -59 -87 -6 -268
-15 -403 -20 -513 -20 -970 -43 -1195 -60 -66 -5 -172 -12 -235 -15 -63 -3
-126 -8 -140 -11 l-25 -6 25 -13 c14 -8 35 -14 47 -15 12 0 25 -4 28 -10 3 -5
17 -10 31 -10 13 0 32 -4 42 -10 31 -18 152 -70 162 -70 6 0 10 -4 10 -10 0
-5 5 -10 11 -10 33 0 189 -137 189 -167 0 -7 4 -13 8 -13 17 0 32 -70 32 -148
0 -134 -50 -218 -187 -310 -34 -23 -67 -42 -72 -42 -6 0 -25 -8 -43 -18 -31
-16 -97 -40 -208 -73 -60 -18 -354 -19 -372 -1 -6 6 -19 12 -28 12 -32 0 -214
79 -300 130 -76 45 -103 60 -255 146 -38 21 -83 47 -100 56 -49 29 -212 108
-222 108 -5 0 -28 9 -51 20 -22 11 -48 20 -56 20 -8 0 -17 4 -20 9 -16 25
-156 30 -351 13 -285 -26 -343 -32 -410 -42 -38 -6 -110 -15 -160 -20 -49 -6
-128 -14 -175 -20 -320 -38 -483 -18 -605 75 -77 58 -112 114 -154 246 -14 45
-14 169 0 223 6 22 15 59 21 81 21 80 70 183 115 241 101 134 227 204 398 221
90 9 412 10 710 3 l200 -5 -1 220 c-1 121 -7 288 -14 370 -23 287 -27 433 -24
930 4 473 12 623 36 650 4 5 8 19 8 31 0 38 75 204 112 249 75 91 223 298 293
409 11 18 45 65 76 106 69 91 67 88 228 403 139 273 184 358 212 397 9 14 32
53 50 85 46 85 146 252 180 302 16 23 29 44 29 48 0 4 14 26 30 50 17 24 30
46 30 49 0 5 248 385 268 411 4 6 42 60 83 120 74 109 186 271 201 290 4 6 20
26 35 45 16 19 44 55 63 80 19 25 40 52 47 60 6 8 33 44 60 80 26 36 54 71 61
79 7 8 21 26 30 40 9 14 22 33 29 41 6 8 27 35 45 60 19 25 63 83 98 130 120
160 138 185 159 223 42 75 15 156 -66 198 -41 21 -51 22 -205 15 -480 -19
-635 -27 -748 -37 -69 -6 -170 -14 -225 -19 -55 -5 -131 -13 -170 -19 -38 -5
-95 -13 -125 -16 -30 -3 -73 -10 -95 -15 -22 -5 -74 -14 -115 -20 -41 -6 -91
-15 -110 -20 -19 -5 -62 -14 -95 -20 -33 -6 -78 -15 -100 -20 -47 -10 -169
-32 -335 -60 -127 -21 -236 -42 -320 -61 -25 -6 -63 -14 -85 -19 -127 -28
-151 -34 -159 -42 -6 -4 -21 -8 -34 -8 -13 0 -36 -8 -50 -18 -33 -22 -174 -66
-302 -93 -30 -6 -65 -15 -78 -20 -13 -5 -34 -9 -47 -9 -13 0 -37 -5 -52 -11
-50 -20 -78 -32 -98 -40 -11 -4 -54 -19 -96 -33 -65 -21 -165 -58 -234 -86
-11 -4 -47 -18 -80 -30 -33 -12 -80 -31 -105 -42 -25 -11 -54 -24 -65 -28 -49
-18 -208 -94 -254 -121 -65 -38 -184 -123 -291 -209 -152 -122 -308 -230 -360
-249 -19 -7 -44 -17 -55 -21 -57 -24 -153 -33 -216 -21 -82 16 -127 31 -161
53 -14 10 -31 18 -36 18 -6 0 -37 27 -70 59 -57 57 -106 140 -122 205 -5 17
-16 58 -25 91 -24 89 -18 353 9 410 25 51 138 163 196 194 122 65 194 101 202
101 5 0 28 9 50 20 23 11 49 20 58 20 9 0 20 4 25 9 6 5 44 18 85 30 41 12 89
26 106 32 17 5 40 9 52 9 11 0 23 4 26 9 3 4 27 11 53 14 26 3 68 12 93 20 25
8 65 20 90 27 25 8 49 17 55 22 5 4 19 8 31 8 13 0 25 4 28 8 3 5 31 14 63 21
31 8 64 17 73 21 15 7 48 18 125 38 22 6 65 18 95 27 30 10 71 21 90 25 19 5
53 14 75 20 22 6 60 15 85 20 25 5 88 18 140 30 52 11 124 25 160 30 36 6 90
15 120 20 30 6 87 14 125 20 39 5 93 14 120 20 94 18 449 62 650 80 61 5 157
14 215 20 58 6 193 15 300 21 107 5 229 14 270 19 41 5 131 14 200 19 235 19
385 31 490 41 668 64 1050 74 2010 55z m9239 -826 c124 -40 183 -97 227 -221
18 -50 21 -209 6 -260 -6 -18 -16 -53 -23 -78 -7 -25 -22 -61 -33 -80 -10 -19
-24 -44 -30 -55 -18 -33 -95 -134 -145 -190 -63 -71 -152 -172 -192 -220 -33
-39 -66 -75 -179 -200 -95 -104 -312 -319 -380 -375 -36 -30 -72 -62 -80 -70
-15 -16 -118 -104 -155 -133 -100 -79 -191 -152 -195 -157 -3 -3 -30 -25 -60
-50 -30 -25 -57 -47 -60 -50 -3 -3 -21 -18 -40 -34 -19 -15 -127 -119 -240
-230 -113 -111 -239 -231 -280 -266 -41 -36 -77 -67 -80 -70 -3 -3 -39 -34
-80 -70 -41 -36 -77 -67 -80 -70 -3 -3 -30 -25 -60 -50 -30 -25 -57 -47 -60
-50 -5 -6 -185 -154 -210 -173 -8 -7 -60 -46 -115 -87 -55 -41 -143 -109 -195
-150 -52 -42 -149 -115 -215 -163 -66 -49 -127 -94 -135 -100 -8 -7 -44 -33
-80 -57 -36 -25 -67 -47 -70 -50 -3 -3 -21 -17 -42 -32 -20 -15 -42 -33 -50
-40 -7 -8 -33 -29 -58 -48 -25 -19 -47 -37 -50 -40 -3 -3 -39 -34 -80 -70 -41
-36 -77 -67 -80 -70 -3 -3 -21 -17 -40 -30 -19 -13 -42 -31 -50 -40 -8 -8 -53
-49 -100 -90 -132 -116 -325 -307 -399 -395 -74 -87 -119 -164 -140 -235 -7
-25 -17 -59 -22 -76 -13 -42 -11 -128 3 -159 18 -39 74 -36 323 16 75 15 95
21 101 30 3 5 14 9 25 9 10 0 27 4 37 9 9 5 49 21 87 36 69 26 101 40 180 75
22 10 56 25 75 33 19 8 67 29 105 47 39 18 84 38 100 45 135 57 496 230 535
255 14 10 50 30 80 47 91 50 154 89 262 161 133 90 306 266 493 502 37 47 110
127 163 178 77 75 112 101 181 135 85 41 86 41 201 41 124 0 132 -3 235 -74
51 -36 75 -63 115 -136 29 -52 33 -68 33 -134 1 -104 -24 -153 -133 -260 -83
-83 -116 -106 -508 -360 -106 -69 -222 -175 -222 -203 0 -7 -9 -23 -20 -37
-16 -21 -20 -41 -20 -120 0 -67 4 -102 14 -116 23 -32 84 -47 162 -41 108 9
244 26 299 37 28 6 77 15 110 20 33 5 83 15 110 20 28 6 70 15 95 19 25 5 80
19 123 30 157 43 233 63 267 71 19 5 69 18 110 30 74 22 113 31 200 50 25 5
63 13 85 19 73 17 139 32 185 41 25 6 65 15 90 21 25 5 65 14 90 19 25 4 63
14 85 20 22 6 58 15 80 20 22 5 58 13 80 20 22 6 60 15 85 19 25 5 86 19 135
31 50 11 108 25 130 30 96 20 153 32 200 40 56 9 199 41 290 63 33 8 87 20
120 27 33 7 87 19 120 27 33 8 80 19 105 23 25 4 72 13 105 20 33 7 85 16 115
20 59 9 274 45 355 61 28 5 69 12 93 15 23 4 45 11 48 15 3 5 20 9 37 9 18 0
55 7 82 16 28 9 68 20 90 25 22 4 60 13 85 19 159 37 366 62 501 58 106 -3
120 -6 174 -33 77 -39 105 -80 105 -150 0 -61 -15 -102 -61 -165 -93 -128
-242 -228 -509 -343 -19 -8 -61 -27 -93 -41 -32 -14 -60 -26 -63 -26 -9 0
-224 -107 -274 -136 -25 -15 -58 -35 -75 -44 -16 -10 -90 -54 -164 -99 -73
-44 -135 -81 -138 -81 -2 0 -23 -13 -46 -28 -23 -16 -73 -46 -112 -67 -38 -21
-115 -63 -170 -95 -55 -31 -121 -69 -147 -84 -109 -60 -145 -80 -188 -103 -25
-14 -49 -28 -55 -33 -5 -4 -36 -21 -67 -39 -151 -82 -176 -96 -215 -123 -23
-15 -46 -28 -52 -28 -6 0 -11 -4 -11 -10 0 -5 -5 -10 -10 -10 -6 0 -27 -11
-48 -24 -55 -35 -262 -156 -267 -156 -2 0 -28 -14 -57 -31 -29 -18 -66 -40
-83 -49 -116 -66 -188 -116 -207 -142 -13 -17 -43 -50 -67 -72 -189 -176 -207
-200 -178 -240 8 -11 26 -19 43 -19 43 0 153 13 202 24 171 38 178 40 417 111
86 25 284 95 307 108 10 6 25 10 33 10 8 0 34 8 58 19 60 27 414 141 437 141
10 0 22 5 25 10 3 6 16 10 27 10 12 0 35 5 52 10 146 48 222 70 242 70 12 0
26 5 29 10 3 6 14 10 23 10 16 0 197 53 237 69 11 5 54 19 95 31 41 12 86 26
100 30 14 4 45 13 70 20 25 6 53 16 62 21 10 5 26 9 35 9 10 0 47 9 83 20 36
10 99 29 140 40 41 12 102 29 135 39 33 10 80 24 105 31 25 7 56 16 70 20 14
4 45 13 70 20 25 7 65 19 90 27 25 8 63 18 85 23 22 5 58 14 80 20 22 6 56 15
75 20 19 5 71 19 115 30 44 12 96 25 115 30 19 5 53 14 75 20 22 6 56 15 75
19 19 5 55 15 80 23 25 8 65 21 90 28 25 7 56 16 70 20 14 4 59 18 100 30 41
12 86 25 100 30 14 4 45 13 70 20 25 7 55 16 68 21 13 5 33 9 45 9 13 0 27 4
33 8 5 5 36 15 69 22 33 7 65 16 70 20 6 4 26 11 45 15 19 4 51 11 70 15 90
22 231 52 285 60 33 5 80 14 105 20 25 6 70 14 100 19 30 5 100 16 155 25 175
28 234 36 278 36 23 0 78 7 122 16 44 8 112 19 150 24 171 24 203 41 315 168
158 178 207 231 321 349 65 67 155 151 201 188 46 36 91 72 100 80 9 8 70 50
136 93 168 114 283 169 462 222 41 12 84 26 95 30 11 5 31 11 45 13 14 3 55
12 91 20 136 31 423 30 649 -2 36 -6 97 -14 135 -20 164 -23 232 -51 269 -110
39 -61 35 -116 -19 -272 -56 -164 -83 -218 -166 -328 -94 -125 -123 -169 -158
-238 -37 -72 -39 -103 -8 -129 44 -39 70 -46 163 -41 111 5 167 19 279 68 11
4 58 22 105 39 106 39 106 39 213 89 48 23 89 41 91 41 10 0 176 100 225 136
154 112 259 212 482 459 30 33 81 89 114 125 34 36 90 99 125 140 36 41 67 77
70 80 3 3 36 44 73 92 37 47 73 92 79 100 12 12 33 39 138 183 24 33 50 66 57
75 7 8 40 51 73 95 33 44 86 110 118 147 60 70 531 541 642 642 36 33 103 96
150 140 47 45 137 128 200 186 63 58 157 148 210 200 132 131 266 250 379 338
64 50 151 125 261 228 42 39 124 109 181 156 57 48 151 125 209 173 173 143
296 220 420 261 59 19 94 27 235 49 189 30 289 -28 314 -182 7 -50 -2 -167
-18 -208 -28 -75 -84 -168 -172 -285 -171 -228 -290 -363 -523 -594 -447 -442
-633 -619 -789 -748 -67 -55 -133 -110 -147 -122 -30 -26 -209 -173 -230 -189
-38 -29 -126 -103 -140 -117 -8 -8 -53 -49 -100 -90 -47 -41 -91 -81 -98 -88
-8 -7 -71 -61 -140 -120 -70 -59 -132 -111 -138 -117 -6 -5 -57 -48 -113 -95
-57 -47 -115 -95 -130 -108 -14 -13 -66 -51 -116 -85 -49 -33 -94 -65 -100
-69 -5 -5 -64 -52 -130 -104 -231 -185 -335 -293 -321 -331 6 -14 21 -15 114
-9 492 30 609 14 714 -98 50 -53 68 -102 67 -186 0 -67 -19 -173 -32 -186 -4
-4 -7 -14 -7 -21 0 -8 -9 -32 -19 -53 -11 -22 -25 -64 -31 -92 -7 -29 -16 -66
-21 -82 -5 -16 -9 -63 -9 -106 0 -70 2 -78 28 -101 55 -51 82 -61 152 -61 70
1 135 17 230 59 57 24 81 36 215 108 222 118 280 146 393 194 171 72 224 86
280 69 58 -17 82 -51 82 -117 0 -59 -25 -110 -79 -160 -35 -33 -204 -151 -216
-151 -4 0 -94 -60 -201 -132 -108 -73 -203 -137 -212 -143 -8 -5 -61 -39 -116
-76 -199 -129 -307 -169 -456 -169 -118 0 -230 28 -330 83 -59 32 -217 156
-243 190 -28 37 -61 107 -73 152 -17 70 -7 201 27 335 6 25 13 72 16 105 4 54
2 63 -20 85 -38 38 -108 55 -225 54 -64 0 -107 -5 -114 -12 -7 -7 -21 -12 -32
-12 -40 -1 -441 -224 -486 -270 -16 -17 -101 -77 -210 -150 -69 -46 -127 -86
-130 -90 -3 -4 -34 -26 -70 -50 -36 -24 -67 -46 -70 -50 -3 -4 -68 -49 -145
-100 -131 -87 -271 -192 -305 -229 -8 -9 -40 -36 -70 -61 -30 -25 -57 -47 -60
-51 -3 -3 -39 -28 -80 -55 -73 -49 -134 -74 -179 -74 -31 0 -101 36 -141 73
-63 57 -82 92 -83 155 -2 79 18 109 140 203 68 53 109 104 92 114 -14 9 -85
-2 -176 -26 -103 -27 -233 -26 -304 3 -117 47 -192 116 -243 220 -20 42 -43
81 -50 87 -20 17 -102 -8 -241 -74 -277 -130 -275 -130 -380 -171 -38 -15 -74
-31 -79 -35 -6 -5 -16 -9 -23 -9 -7 0 -35 -9 -61 -21 -26 -12 -58 -26 -72 -31
-14 -6 -33 -14 -42 -19 -10 -5 -25 -9 -33 -9 -8 0 -23 -4 -33 -9 -19 -10 -82
-24 -184 -43 -52 -9 -83 -9 -132 0 -35 7 -76 12 -92 12 -16 0 -60 10 -99 22
-81 25 -135 52 -295 148 -158 94 -221 126 -261 133 -19 3 -56 11 -84 16 -58
12 -281 35 -340 34 -43 0 -229 -18 -335 -33 -36 -5 -101 -13 -145 -19 -114
-16 -194 -33 -330 -71 -44 -12 -111 -30 -150 -40 -64 -17 -130 -36 -300 -89
-33 -10 -85 -27 -115 -36 -30 -9 -68 -21 -85 -25 -16 -5 -61 -18 -100 -30 -92
-28 -210 -60 -260 -69 -38 -8 -126 -31 -245 -66 -30 -8 -73 -20 -95 -26 -22
-6 -51 -15 -65 -19 -14 -5 -72 -23 -130 -40 -58 -18 -114 -36 -125 -41 -37
-15 -263 -89 -274 -89 -6 0 -30 -9 -54 -19 -55 -25 -115 -47 -207 -78 -41 -14
-79 -28 -85 -32 -5 -4 -30 -13 -55 -21 -25 -7 -49 -17 -54 -22 -6 -4 -18 -8
-28 -8 -10 0 -26 -4 -36 -9 -37 -19 -73 -32 -222 -82 -85 -28 -173 -59 -195
-69 -72 -32 -147 -60 -160 -60 -13 0 -107 -35 -137 -51 -10 -5 -25 -9 -33 -9
-8 0 -34 -9 -58 -19 -23 -11 -71 -29 -107 -41 -36 -12 -74 -25 -85 -30 -11 -5
-40 -16 -65 -24 -42 -13 -159 -57 -205 -76 -11 -5 -49 -18 -85 -30 -63 -21
-78 -26 -130 -48 -14 -5 -41 -15 -60 -22 -19 -7 -54 -21 -77 -31 -24 -11 -49
-19 -57 -19 -8 0 -18 -4 -21 -10 -3 -5 -15 -10 -25 -10 -11 0 -39 -9 -62 -19
-24 -11 -70 -29 -103 -41 -69 -25 -89 -33 -127 -49 -16 -6 -38 -15 -50 -20
-13 -5 -44 -18 -70 -30 -26 -12 -52 -21 -56 -21 -5 0 -22 -6 -38 -14 -182 -88
-304 -116 -411 -95 -66 13 -195 68 -207 88 -4 5 -31 22 -60 36 -63 31 -95 73
-125 166 -33 98 -26 157 30 274 43 90 81 132 282 310 7 6 28 22 47 35 19 13
37 27 40 30 3 3 34 26 70 51 36 24 67 46 70 49 13 13 92 71 150 110 36 24 70
48 75 52 15 12 153 99 210 133 28 16 64 38 80 47 43 26 173 88 185 88 11 0
254 125 328 169 29 17 55 31 57 31 2 0 28 14 57 31 85 51 139 81 263 149 33
18 80 44 105 58 25 14 203 105 395 202 193 97 367 187 388 198 20 12 53 31 73
42 62 36 178 117 198 138 10 12 16 28 12 37 -5 14 -19 15 -93 10 -49 -4 -99
-10 -113 -15 -14 -4 -45 -13 -70 -18 -25 -6 -67 -16 -95 -22 -66 -15 -123 -29
-160 -40 -59 -18 -161 -42 -210 -50 -27 -5 -68 -13 -90 -18 -22 -6 -56 -13
-75 -17 -72 -14 -287 -65 -395 -95 -16 -4 -52 -13 -80 -20 -27 -7 -54 -17 -59
-21 -6 -5 -19 -9 -30 -9 -12 0 -41 -8 -66 -17 -25 -9 -63 -19 -85 -24 -37 -7
-131 -28 -215 -49 -45 -11 -229 -68 -255 -79 -50 -21 -123 -44 -150 -49 -16
-2 -34 -8 -40 -11 -5 -4 -30 -13 -55 -21 -25 -7 -83 -25 -130 -40 -47 -15
-110 -35 -140 -45 -30 -10 -73 -21 -95 -26 -48 -10 -105 -24 -160 -39 -22 -6
-71 -18 -110 -26 -38 -8 -79 -19 -90 -24 -11 -5 -40 -11 -65 -14 -25 -3 -65
-10 -90 -16 -25 -5 -67 -15 -95 -20 -27 -6 -70 -15 -95 -21 -25 -5 -76 -14
-115 -19 -38 -5 -97 -14 -130 -20 -94 -17 -411 -24 -475 -10 -78 16 -166 48
-230 82 -52 28 -173 143 -231 218 l-26 34 -69 -12 c-77 -14 -121 -25 -209 -51
-142 -42 -212 -64 -240 -76 -69 -29 -112 -48 -148 -66 -22 -10 -43 -19 -48
-19 -5 0 -29 -9 -54 -20 -25 -11 -65 -29 -90 -40 -25 -11 -53 -20 -63 -20 -10
0 -22 -4 -28 -8 -5 -4 -27 -14 -49 -21 -22 -7 -49 -16 -60 -21 -65 -29 -201
-61 -390 -90 -33 -5 -80 -14 -105 -20 -130 -32 -628 -52 -705 -30 -90 27 -146
73 -184 154 -20 43 -22 61 -19 150 2 55 12 127 21 159 9 32 17 69 17 83 0 32
-48 104 -69 104 -14 0 -99 -38 -111 -50 -3 -3 -27 -16 -55 -30 -27 -14 -109
-64 -182 -112 -125 -82 -284 -168 -311 -168 -7 0 -20 -4 -30 -9 -63 -32 -281
-43 -343 -17 -125 52 -156 189 -68 300 48 61 264 182 404 226 39 12 78 26 87
31 10 5 27 9 38 9 11 0 29 5 40 10 11 6 29 15 40 20 11 6 26 10 34 10 12 0 80
25 151 55 17 8 50 21 75 31 25 9 57 26 72 36 14 10 31 18 38 18 6 0 30 13 53
28 23 16 63 40 89 55 26 15 53 33 60 40 7 7 29 24 48 37 19 13 37 27 40 30 3
3 30 25 60 50 152 123 572 543 730 730 30 36 62 72 70 80 8 8 28 32 44 53 15
21 42 53 60 70 17 18 51 57 76 87 25 30 47 57 50 60 3 3 17 21 30 40 13 19 27
37 30 40 3 3 18 22 33 42 40 54 182 225 231 278 22 25 75 83 116 130 41 47 92
103 112 125 20 22 47 54 59 70 13 17 26 32 29 35 6 6 125 143 160 185 14 16
48 54 75 85 28 30 80 89 115 130 36 41 67 77 70 80 3 3 30 34 60 70 30 36 57
67 60 70 3 3 18 21 34 40 38 47 222 256 246 280 13 13 102 113 160 180 99 115
365 373 490 476 19 16 41 35 48 42 8 7 30 25 50 40 21 15 39 29 42 32 15 15
90 78 119 100 18 14 59 44 89 67 31 23 68 48 82 55 14 7 31 19 38 25 7 7 34
25 60 40 26 15 49 30 52 33 9 10 128 90 134 90 3 0 54 32 112 70 58 39 108 70
110 70 3 0 24 13 47 29 226 155 489 240 616 200z m-244 -2399 c3 -5 14 -10 24
-10 82 0 201 -163 201 -274 0 -51 -26 -168 -44 -206 -42 -82 -263 -255 -451
-352 -138 -71 -203 -88 -347 -88 -119 0 -133 2 -180 26 -71 36 -143 107 -175
173 -24 48 -28 68 -28 141 0 67 5 94 21 125 12 22 28 53 35 69 15 33 155 179
207 217 102 74 248 141 377 174 61 16 351 19 360 5z m-683 -8345 c3 -22 2
-109 -3 -194 -24 -418 -20 -2145 6 -2227 7 -23 71 -44 138 -44 53 0 67 -13 67
-61 0 -61 -19 -67 -235 -79 -82 -5 -188 -14 -234 -20 -101 -14 -111 -7 -111
74 -1 56 -14 133 -24 144 -4 3 -10 2 -14 -3 -14 -21 -109 -94 -157 -122 -104
-60 -224 -97 -296 -90 -247 25 -375 81 -511 226 -93 100 -155 216 -187 351
-48 208 -41 373 27 596 13 41 77 169 105 208 100 143 257 256 412 300 81 23
218 39 276 33 130 -14 183 -33 267 -97 29 -22 55 -40 57 -40 3 0 5 189 5 420
0 483 10 440 -107 440 -68 1 -149 12 -160 23 -9 10 -5 95 6 115 9 16 28 20
143 26 180 10 265 20 453 56 62 12 69 9 77 -35z m10871 31 c3 -7 0 -206 -6
-442 -14 -495 -14 -1599 -1 -1849 l9 -170 30 -14 c17 -8 58 -17 93 -19 61 -4
64 -6 79 -38 13 -26 14 -39 6 -57 -13 -29 -46 -35 -258 -47 -77 -5 -169 -14
-205 -20 -106 -17 -105 -18 -120 110 -8 60 -17 110 -20 110 -4 0 -15 -10 -26
-21 -38 -43 -185 -132 -279 -170 -94 -37 -241 -28 -425 27 -90 27 -219 125
-295 225 -50 66 -116 200 -128 259 -3 14 -12 51 -21 83 -18 65 -23 332 -7 383
5 16 15 56 22 89 7 33 25 88 41 123 15 34 28 65 28 68 0 12 96 148 137 194 80
89 221 175 343 208 122 34 257 39 367 14 53 -12 117 -45 170 -88 23 -19 46
-34 52 -34 8 0 11 124 11 414 l0 414 -22 14 c-14 9 -62 18 -118 21 -143 10
-140 9 -140 77 0 34 5 62 13 67 6 6 71 13 142 17 174 8 301 24 440 55 60 13
82 12 88 -3z m-19885 -381 c1 -198 -1 -394 -5 -435 l-8 -75 -70 0 c-69 0 -69
0 -76 30 -26 109 -46 170 -82 245 -54 113 -171 233 -278 285 -40 19 -76 35
-81 35 -4 0 -27 9 -51 19 -53 24 -101 30 -302 37 -214 8 -275 -5 -400 -84 -64
-41 -175 -144 -175 -163 0 -4 -7 -14 -15 -22 -30 -30 -109 -209 -137 -307 -43
-156 -67 -359 -67 -580 -1 -114 4 -177 28 -370 9 -65 35 -177 51 -215 4 -11
22 -55 38 -97 17 -42 47 -103 69 -135 44 -67 146 -171 189 -193 16 -8 40 -22
54 -30 35 -23 123 -51 195 -63 138 -22 374 -6 470 33 120 48 230 124 302 207
73 84 91 115 183 300 34 66 68 124 77 127 19 8 108 -47 129 -79 17 -25 15 -30
-39 -145 -124 -261 -323 -472 -527 -559 -30 -13 -68 -30 -85 -39 -32 -17 -64
-24 -230 -48 -91 -13 -132 -14 -235 -5 -256 22 -294 30 -470 93 -94 34 -282
135 -310 167 -3 4 -23 19 -45 36 -118 88 -239 242 -311 395 -37 79 -41 88 -63
160 -55 181 -64 262 -58 510 5 209 12 269 41 375 58 212 160 390 306 533 62
61 192 165 235 188 174 93 212 110 335 144 25 7 56 16 70 20 80 25 269 50 375
50 85 0 222 -22 355 -58 30 -8 67 -17 83 -19 15 -3 30 -9 33 -14 3 -5 12 -9
20 -9 20 0 102 -39 151 -72 23 -15 48 -28 57 -28 31 0 76 99 76 167 0 47 15
54 110 51 l85 -3 3 -360z m15726 285 c22 -8 26 -16 26 -52 0 -74 -7 -85 -53
-91 -148 -20 -248 -46 -294 -75 l-23 -14 0 -1012 0 -1011 38 -49 c53 -71 97
-91 206 -93 49 -1 95 -4 102 -7 20 -8 19 -109 -1 -126 -12 -10 -57 -11 -213
-4 -249 11 -404 11 -662 0 -238 -10 -233 -12 -228 76 l3 53 100 13 c141 19
141 19 180 53 l35 31 0 794 c0 523 -3 794 -10 794 -5 0 -10 -7 -10 -15 0 -8
-4 -23 -10 -33 -8 -15 -58 -125 -80 -177 -5 -11 -27 -60 -50 -108 -22 -49 -40
-90 -40 -92 0 -2 -16 -38 -36 -82 -20 -43 -52 -111 -70 -151 -19 -41 -34 -76
-34 -78 0 -2 -14 -34 -31 -71 -48 -104 -80 -174 -96 -213 -17 -39 -38 -87 -77
-172 -14 -32 -38 -84 -52 -115 -14 -32 -34 -76 -44 -98 -10 -22 -34 -74 -53
-115 -35 -74 -64 -140 -94 -210 -37 -88 -61 -125 -84 -130 -35 -9 -91 3 -99
20 -4 8 -13 26 -20 40 -16 29 -146 283 -309 605 -65 127 -122 240 -129 253
-42 78 -262 512 -376 739 -56 111 -104 202 -108 202 -5 1 -8 -354 -8 -787 l0
-789 33 -29 c43 -39 87 -53 182 -61 44 -3 86 -10 93 -16 18 -14 16 -111 -3
-127 -12 -10 -44 -11 -143 -4 -161 11 -362 11 -569 0 -127 -7 -166 -6 -178 4
-19 15 -21 103 -2 117 6 6 41 13 77 17 182 18 240 36 300 94 22 23 28 245 29
1113 1 698 -1 789 -15 818 -20 40 -122 123 -171 140 -21 7 -47 16 -58 20 -55
23 -75 29 -132 41 -56 13 -63 17 -68 42 -4 16 -4 46 0 68 l7 40 101 0 c56 0
225 5 375 11 183 8 281 8 295 1 14 -6 47 -59 90 -143 37 -74 91 -179 120 -234
45 -84 95 -182 126 -245 5 -8 30 -55 56 -105 26 -49 85 -162 130 -250 45 -88
120 -232 165 -320 46 -88 133 -258 193 -377 64 -127 116 -218 124 -218 7 0 18
12 24 27 10 28 26 65 59 138 10 22 25 56 33 75 8 19 24 56 36 83 12 26 30 68
42 95 12 26 28 63 36 82 8 19 23 53 33 75 10 22 25 56 33 75 8 19 24 56 36 83
12 26 30 68 42 95 12 26 28 63 36 82 9 19 33 72 54 118 22 45 39 87 39 92 0 5
8 24 18 42 9 18 33 69 51 113 57 132 90 208 111 248 11 22 20 43 20 48 0 5 14
39 31 76 68 149 91 199 98 213 9 16 90 23 471 39 113 4 208 9 212 9 4 1 18 -2
32 -8z m-12386 -810 c26 -6 69 -16 96 -22 27 -6 78 -26 112 -44 l63 -33 13 26
c19 38 39 47 90 39 37 -6 47 -11 50 -29 2 -12 2 -135 0 -274 l-4 -252 -28 -11
c-15 -6 -45 -10 -66 -8 l-38 3 -18 104 c-20 120 -57 207 -115 266 -63 64 -128
87 -247 88 -132 1 -209 -58 -235 -182 -16 -75 7 -148 64 -207 26 -27 138 -79
310 -143 82 -31 248 -125 313 -177 93 -74 144 -144 177 -243 28 -83 30 -119
10 -211 -8 -36 -17 -78 -20 -95 -13 -59 -67 -153 -118 -203 -52 -51 -117 -89
-192 -112 -22 -7 -49 -16 -60 -21 -100 -40 -420 -37 -461 4 -4 4 -15 7 -24 7
-16 0 -66 21 -143 60 -50 26 -64 25 -73 -2 -16 -56 -54 -70 -121 -46 -32 12
-33 13 -33 73 0 33 -5 153 -10 266 -5 113 -6 219 -1 235 7 27 11 29 60 32 64
4 86 -12 95 -66 14 -90 25 -126 60 -193 20 -39 44 -78 51 -86 8 -8 15 -18 15
-23 0 -15 135 -110 157 -110 12 0 25 -4 28 -10 4 -6 54 -10 118 -10 140 0 203
20 262 82 53 55 75 135 56 200 -32 108 -109 170 -344 277 -48 22 -108 47 -133
56 -97 33 -230 113 -292 176 -59 60 -92 150 -99 269 -11 178 69 341 217 439
81 54 127 73 210 90 168 32 189 34 248 21z m19860 -1 c112 -25 141 -34 200
-66 66 -34 82 -35 82 -3 0 27 33 42 88 38 l47 -3 5 -45 c3 -25 4 -149 2 -276
l-4 -232 -24 -11 c-76 -34 -134 4 -134 88 0 105 -81 274 -152 315 -81 48 -252
65 -321 32 -69 -32 -126 -125 -127 -204 0 -85 60 -177 143 -215 73 -34 134
-59 187 -77 72 -25 132 -53 259 -121 79 -42 227 -185 259 -250 12 -25 26 -69
31 -96 13 -66 -1 -232 -26 -306 -38 -115 -151 -238 -248 -268 -22 -7 -44 -16
-50 -20 -5 -3 -23 -9 -40 -12 -16 -2 -57 -12 -90 -22 -47 -13 -89 -16 -195
-12 -154 4 -219 21 -373 98 -53 26 -66 24 -74 -12 -7 -36 -38 -51 -97 -47
l-41 3 -8 299 c-8 340 -10 332 62 320 55 -9 81 -37 81 -85 0 -21 5 -51 11 -66
6 -15 15 -37 19 -48 19 -49 58 -119 90 -162 83 -109 160 -143 327 -143 151 0
214 26 268 110 28 44 39 106 30 170 -6 44 -14 58 -68 113 -60 61 -141 107
-327 189 -25 11 -53 24 -62 29 -10 5 -23 9 -30 9 -13 1 -74 30 -167 81 -66 35
-142 116 -176 184 -27 54 -30 71 -33 175 -4 127 3 163 51 259 34 67 123 166
172 191 17 8 32 18 35 21 10 11 117 47 170 57 184 35 185 36 248 21z m-6134
-20 c120 -14 182 -32 296 -86 108 -52 183 -106 268 -193 41 -43 144 -195 159
-235 55 -153 57 -163 55 -335 -1 -141 -4 -179 -26 -260 -30 -115 -56 -188 -79
-223 -9 -14 -17 -29 -17 -32 0 -3 -19 -34 -42 -68 -131 -193 -310 -299 -555
-327 -89 -11 -126 -11 -177 -2 -35 7 -87 12 -116 12 -44 0 -118 18 -205 50
-80 30 -159 77 -216 132 -121 115 -180 228 -229 440 -33 143 -27 471 11 540 5
10 9 25 9 33 0 21 75 171 105 211 142 187 352 310 585 342 36 5 69 10 74 11 5
0 50 -4 100 -10z m-15640 -18 c17 -5 51 -15 76 -22 81 -23 183 -84 259 -154
47 -43 121 -146 121 -167 0 -8 4 -18 8 -23 5 -6 14 -28 20 -50 33 -118 35
-148 26 -405 -15 -417 -12 -578 10 -623 40 -82 116 -69 155 25 12 28 21 59 21
70 0 22 36 78 51 78 5 0 27 -12 49 -26 38 -26 40 -29 40 -80 0 -61 -10 -87
-62 -166 -55 -83 -119 -126 -225 -154 -65 -17 -152 -18 -190 -3 -115 46 -156
82 -200 175 -14 30 -30 54 -37 54 -6 0 -30 -18 -53 -40 -50 -48 -174 -131
-223 -149 -19 -7 -44 -17 -55 -21 -64 -26 -221 -37 -280 -20 -133 41 -160 55
-225 120 -76 76 -103 125 -136 248 -61 230 71 445 326 532 19 7 44 16 55 20
58 23 214 50 287 50 133 0 286 20 291 39 2 9 5 77 6 152 2 146 -9 208 -52 284
-69 122 -275 162 -409 79 -20 -13 -39 -28 -43 -34 -3 -5 9 -36 29 -68 58 -96
65 -182 24 -272 -32 -68 -107 -112 -203 -117 -50 -3 -69 1 -115 24 -30 16 -59
37 -65 48 -6 11 -17 31 -25 45 -66 115 -51 234 47 347 75 89 185 155 318 192
78 21 323 29 379 12z m3790 -2 c120 -31 118 -30 222 -89 49 -28 60 -37 129
-106 68 -68 92 -109 131 -217 l25 -72 -3 -465 c-2 -425 -1 -468 15 -497 24
-45 50 -57 92 -43 36 12 59 51 86 143 7 27 21 55 31 63 15 14 20 13 57 -8 52
-30 68 -59 53 -93 -7 -14 -12 -32 -12 -40 0 -8 -11 -39 -25 -70 -44 -95 -132
-166 -245 -198 -171 -48 -329 18 -395 164 -14 33 -32 59 -40 59 -7 0 -34 -20
-60 -44 -55 -53 -166 -128 -215 -145 -19 -7 -44 -17 -55 -21 -64 -26 -221 -37
-280 -20 -135 41 -159 55 -230 125 -39 39 -76 84 -84 100 -14 30 -18 41 -41
102 -7 18 -12 83 -12 150 0 100 3 124 21 160 12 23 21 46 21 51 0 15 102 116
150 149 111 75 317 127 545 137 66 3 144 9 173 12 l52 7 0 173 c0 107 -4 184
-11 201 -37 90 -46 103 -97 144 -31 26 -134 59 -182 59 -87 0 -210 -57 -210
-97 0 -8 9 -23 20 -35 70 -75 80 -212 22 -315 -14 -24 -71 -62 -122 -80 -42
-15 -136 -17 -145 -3 -3 6 -15 10 -25 10 -26 0 -80 56 -110 115 -35 68 -35
189 -1 255 27 50 142 169 187 192 16 8 38 19 49 25 41 22 71 33 129 48 32 8
61 17 64 20 10 10 285 5 326 -6z m16099 -8 c93 -25 129 -42 199 -89 164 -110
256 -251 274 -417 4 -38 7 -81 7 -95 -17 -794 -17 -794 1 -827 22 -43 59 -67
90 -59 32 8 69 59 85 116 20 71 39 110 54 110 8 0 33 -14 55 -30 46 -33 51
-51 31 -124 -20 -72 -41 -109 -92 -163 -48 -51 -120 -93 -182 -108 -53 -13
-167 -17 -189 -7 -79 36 -116 56 -139 76 -27 24 -87 128 -87 152 0 25 -24 15
-65 -27 -86 -89 -200 -153 -355 -200 -49 -15 -172 -15 -205 -1 -11 5 -38 15
-60 22 -137 43 -234 136 -280 265 -14 39 -35 161 -35 203 0 99 41 202 105 267
83 84 125 110 240 150 110 38 245 63 385 69 69 3 148 8 177 12 l51 7 8 86 c4
47 4 132 0 188 -10 172 -57 240 -201 288 -67 23 -158 16 -229 -19 -79 -39 -84
-48 -50 -93 50 -66 54 -79 54 -173 0 -136 -33 -186 -150 -227 -159 -56 -310
64 -310 248 0 61 5 80 31 129 17 33 54 82 82 110 49 49 155 120 181 120 6 0
16 4 22 8 5 5 29 14 54 21 25 7 56 16 70 21 14 4 87 8 163 9 107 1 153 -3 210
-18z m-10781 -14 c31 -7 60 -16 64 -20 4 -4 17 -7 29 -7 11 0 25 -4 31 -8 5
-5 25 -15 44 -22 45 -17 144 -87 193 -136 68 -68 120 -173 156 -314 7 -26 11
-97 9 -170 l-3 -125 -516 -3 c-448 -2 -518 -4 -529 -17 -10 -13 -11 -40 -1
-138 7 -67 16 -138 21 -157 81 -316 181 -430 375 -430 103 0 222 52 306 133
73 70 87 89 135 182 33 63 47 81 65 82 28 3 142 -74 147 -99 6 -31 -58 -144
-122 -214 -122 -134 -292 -224 -469 -251 -85 -13 -121 -13 -217 -4 -125 13
-138 16 -265 70 -60 26 -59 25 -132 81 -123 94 -221 237 -262 380 -5 19 -15
55 -22 79 -18 61 -19 420 -1 481 7 25 18 61 23 80 58 204 200 372 389 461 47
22 93 45 102 50 10 5 27 9 38 9 11 0 28 5 38 10 45 27 278 37 374 17z"/>
<path d="M36024 26103 c-20 -4 -292 -139 -366 -181 -21 -12 -55 -32 -75 -43
-73 -41 -248 -161 -318 -219 -84 -69 -322 -313 -408 -420 -34 -41 -64 -77 -68
-80 -3 -3 -52 -75 -109 -160 -57 -85 -106 -157 -109 -160 -3 -3 -12 -16 -19
-29 -8 -13 -23 -40 -34 -60 -65 -114 -94 -169 -152 -286 -78 -160 -112 -237
-136 -305 -7 -19 -16 -44 -21 -55 -12 -28 -44 -140 -58 -200 -29 -132 -41
-482 -20 -599 25 -142 31 -173 41 -211 18 -66 30 -109 39 -130 4 -11 12 -36
18 -55 26 -87 54 -166 62 -175 5 -5 9 -15 9 -22 0 -26 155 -347 196 -409 13
-19 24 -37 24 -40 0 -3 22 -37 50 -77 27 -40 79 -115 115 -167 66 -95 135
-191 145 -200 3 -3 23 -26 43 -52 52 -64 137 -128 171 -128 60 0 114 48 160
144 37 79 67 158 86 226 6 25 20 74 30 110 11 36 24 85 31 110 39 148 50 190
70 255 25 85 49 172 61 225 22 97 69 288 90 365 22 80 28 102 57 200 47 160
63 217 71 265 5 25 14 65 19 90 13 52 28 123 41 195 6 28 15 73 20 100 6 28
14 77 20 110 5 33 14 78 19 100 6 22 13 54 16 70 8 38 43 189 55 235 23 89 66
330 90 505 22 166 52 341 80 470 5 28 19 109 31 180 30 192 36 224 53 288 23
85 21 182 -4 207 -19 19 -61 24 -116 13z"/>
<path d="M32000 18810 c0 -5 5 -10 10 -10 6 0 10 5 10 10 0 6 -4 10 -10 10 -5
0 -10 -4 -10 -10z"/>
<path d="M19145 25550 c-3 -5 -14 -10 -24 -10 -41 0 -212 -102 -421 -252 -62
-44 -478 -379 -515 -414 -17 -16 -59 -54 -95 -84 -36 -30 -67 -57 -70 -60 -3
-3 -30 -25 -60 -50 -30 -25 -57 -47 -60 -50 -3 -3 -43 -39 -90 -80 -47 -41
-123 -111 -170 -156 -47 -45 -105 -98 -130 -120 -73 -62 -401 -393 -471 -474
-35 -41 -66 -77 -69 -80 -3 -3 -34 -39 -70 -80 -36 -41 -93 -104 -126 -140
-34 -36 -84 -90 -110 -121 -27 -31 -82 -94 -123 -140 -41 -46 -101 -115 -135
-153 -34 -38 -66 -74 -71 -80 -6 -6 -30 -36 -55 -66 -25 -30 -51 -61 -57 -68
-7 -7 -39 -48 -70 -90 -32 -42 -66 -86 -75 -96 -19 -21 -24 -46 -9 -46 8 0 86
65 121 100 8 8 71 67 140 130 69 63 141 131 160 150 19 19 73 69 120 110 47
41 92 82 100 90 8 8 35 33 60 54 25 21 119 111 210 200 227 221 278 268 450
412 87 72 132 108 325 253 84 64 287 233 325 271 13 13 194 162 260 215 41 32
77 61 80 65 3 3 22 18 43 33 20 16 48 38 60 50 12 12 60 51 107 86 107 81 164
125 170 131 3 3 28 23 55 45 85 67 260 247 302 310 78 117 99 175 71 203 -15
15 -74 16 -83 2z"/>
<path d="M32750 24901 c-87 -27 -211 -118 -450 -331 -36 -31 -85 -75 -110 -96
-25 -22 -52 -46 -60 -54 -28 -28 -145 -135 -185 -169 -57 -49 -122 -107 -180
-160 -109 -100 -183 -167 -245 -226 -36 -33 -99 -89 -140 -125 -41 -35 -120
-107 -175 -160 -258 -247 -409 -389 -453 -425 -18 -16 -69 -71 -112 -124 -44
-53 -97 -116 -119 -141 -47 -54 -101 -158 -101 -194 0 -14 3 -26 6 -26 14 0
230 161 394 294 91 74 95 77 245 207 66 58 194 165 285 239 91 74 181 149 200
166 19 17 62 56 96 85 245 217 1014 980 1090 1082 104 140 108 187 14 158z"/>
<path d="M27220 21980 c-30 -4 -71 -13 -90 -18 -19 -6 -51 -15 -70 -20 -165
-44 -379 -144 -512 -239 -303 -215 -367 -275 -417 -388 -7 -16 -18 -38 -23
-49 -5 -10 -12 -51 -15 -90 -6 -71 -5 -72 26 -99 59 -49 159 -63 276 -39 33 7
75 16 93 19 18 3 35 9 38 14 3 5 12 9 20 9 13 0 86 29 128 52 52 28 94 52 121
71 52 35 209 154 235 178 254 230 315 298 349 389 25 65 27 146 6 177 -14 20
-75 45 -100 41 -5 0 -35 -4 -65 -8z"/>
<path d="M17790 14338 c-144 -88 -210 -293 -210 -651 1 -353 67 -543 213 -616
51 -25 74 -31 130 -31 91 0 142 25 217 109 100 110 112 152 130 444 10 154 11
247 3 365 -9 144 -13 162 -39 211 -36 67 -105 139 -164 170 -35 18 -66 25
-135 28 -88 5 -91 4 -145 -29z"/>
<path d="M28749 14370 c-131 -22 -240 -168 -270 -360 -39 -253 -33 -510 19
-710 26 -102 128 -230 198 -249 22 -6 71 -11 110 -11 61 0 76 4 117 30 58 37
103 80 143 140 54 79 62 113 76 325 20 297 10 548 -25 623 -29 63 -112 150
-171 178 -58 28 -143 43 -197 34z"/>
<path d="M26589 14385 c-105 -38 -158 -84 -212 -184 -31 -58 -50 -111 -67
-191 -6 -30 -16 -71 -21 -92 -15 -58 -22 -336 -11 -418 25 -181 66 -297 140
-395 75 -100 182 -152 286 -141 129 13 174 33 243 110 39 43 103 162 114 214
4 20 15 71 24 112 20 95 24 417 6 505 -38 185 -117 348 -203 420 -80 68 -208
94 -299 60z"/>
<path d="M11150 13670 c-14 -4 -45 -8 -69 -9 -24 -1 -60 -5 -80 -10 -20 -5
-63 -15 -96 -21 -89 -17 -126 -30 -162 -56 -30 -23 -40 -39 -72 -117 -6 -15
-11 -66 -11 -112 0 -67 5 -95 24 -137 43 -96 103 -131 227 -130 103 0 148 22
230 109 l59 64 -2 211 c-2 131 -7 212 -13 214 -5 1 -21 -2 -35 -6z"/>
<path d="M14940 13670 c-8 -5 -37 -10 -64 -10 -27 0 -65 -4 -85 -9 -20 -5 -63
-15 -96 -21 -105 -20 -139 -33 -173 -64 -44 -41 -56 -66 -72 -153 -20 -109 2
-196 66 -272 40 -47 93 -63 194 -62 89 1 141 23 206 88 79 79 85 103 82 319
-3 180 -4 189 -23 192 -11 1 -27 -2 -35 -8z"/>
<path d="M31015 13670 c-11 -5 -43 -9 -71 -9 -28 -1 -64 -5 -80 -10 -16 -5
-60 -14 -99 -20 -130 -22 -161 -36 -201 -96 -33 -50 -45 -100 -46 -192 0 -130
41 -212 127 -247 58 -24 195 -21 247 5 51 26 102 72 139 126 l29 42 -2 202
c-2 124 -7 203 -13 205 -5 1 -19 -1 -30 -6z"/>
<path d="M19940 14364 c-83 -31 -117 -65 -158 -154 -35 -78 -39 -88 -53 -150
-6 -30 -15 -68 -20 -84 -5 -16 -9 -53 -9 -82 l0 -54 310 0 310 0 0 82 c0 211
-67 348 -202 416 -43 21 -149 37 -178 26z"/>
</g>
</svg>
